<?xml version="1.0" standalone="no"?>
<!DOCTYPE svg PUBLIC "-//W3C//DTD SVG 20010904//EN"
 "http://www.w3.org/TR/2001/REC-SVG-20010904/DTD/svg10.dtd">
<svg version="1.0" xmlns="http://www.w3.org/2000/svg"
 width="417.000000pt" height="229.000000pt" viewBox="0 0 417.000000 229.000000"
 preserveAspectRatio="xMidYMid meet">

<g transform="translate(0.000000,229.000000) scale(0.100000,-0.100000)"
fill="#000000" stroke="none">
<path d="M3030 2077 c-14 -7 -34 -27 -45 -44 -11 -19 -29 -32 -40 -33 -19 0
-57 -21 -80 -45 -44 -43 -85 -132 -68 -144 5 -3 25 -37 44 -76 45 -92 126
-173 216 -216 37 -17 82 -42 98 -54 17 -11 43 -27 59 -35 52 -27 56 -41 45
-187 -5 -73 -16 -178 -24 -233 -8 -55 -15 -106 -15 -112 -1 -35 -24 36 -45
137 -13 62 -34 133 -46 157 -25 51 -175 201 -191 192 -13 -8 -4 -191 12 -247
16 -54 69 -102 136 -124 31 -10 60 -25 64 -33 35 -73 54 -131 52 -165 -7 -188
-12 -714 -6 -728 3 -9 10 -17 14 -17 4 0 10 152 13 338 4 259 10 370 25 480
11 79 22 144 23 146 41 29 71 45 102 50 50 9 104 58 117 107 6 21 9 83 8 136
-4 124 -16 130 -82 44 -59 -76 -76 -117 -76 -181 0 -58 -9 -81 -42 -102 l-24
-16 8 67 c10 95 9 309 -2 358 -9 38 -7 47 20 90 50 83 72 166 71 273 -1 146
-6 160 -73 193 -47 23 -74 29 -150 33 -65 3 -101 0 -118 -9z m115 -27 c47 -24
55 -25 55 -6 0 16 29 11 83 -14 33 -16 34 -20 1 -51 -22 -20 -34 -23 -78 -21
-80 5 -190 -32 -246 -83 -16 -15 -43 -24 -78 -28 l-53 -6 23 41 c33 59 75 91
111 85 27 -3 31 0 45 34 9 24 26 43 46 53 40 20 44 20 91 -4z m194 -177 c1
-80 -14 -153 -49 -229 -27 -61 -27 -61 -78 -68 -37 -5 -56 -13 -70 -31 -11
-14 -26 -25 -33 -25 -28 0 -115 59 -162 109 -46 49 -111 166 -101 182 2 4 29
11 60 15 67 8 95 -4 118 -52 15 -33 41 -53 52 -41 3 3 -5 24 -18 46 -23 40
-23 40 -3 60 16 16 156 75 160 68 1 -1 6 -24 11 -52 7 -36 14 -51 28 -53 16
-4 17 1 12 45 -6 44 -4 51 25 87 29 35 34 37 40 20 4 -10 8 -47 8 -81z m-154
58 c-6 -5 -40 -18 -76 -30 -36 -12 -75 -30 -87 -41 -23 -22 -32 -25 -32 -11 0
14 51 43 120 68 70 24 90 28 75 14z m52 -400 c13 -21 28 -91 20 -91 -4 0 -27
12 -52 28 -50 30 -54 49 -15 69 32 16 33 16 47 -6z m208 -347 c-16 -42 -46
-76 -77 -87 -13 -5 -8 8 17 44 19 28 35 57 35 65 0 19 -20 17 -36 -3 -12 -16
-13 -14 -7 17 7 39 26 81 57 125 l21 30 3 -75 c2 -50 -2 -88 -13 -116z m-413
99 c65 -68 71 -80 91 -156 13 -48 13 -56 1 -47 -7 7 -25 36 -40 66 -24 49 -54
72 -54 42 0 -14 67 -135 80 -143 21 -13 9 -23 -19 -15 -83 24 -116 81 -127
218 -4 58 -3 92 3 92 6 0 35 -26 65 -57z"/>
<path d="M1168 2024 c-5 -4 -8 -32 -8 -63 l-1 -56 -16 30 c-22 41 -43 65 -60
65 -23 0 -78 -47 -107 -91 l-27 -39 26 -26 c14 -14 25 -27 25 -29 0 -2 -18 2
-40 10 -35 12 -41 12 -55 -1 -20 -21 -47 -116 -43 -156 3 -35 5 -36 76 -24
l37 6 -52 -27 -51 -28 20 -40 c26 -52 77 -105 100 -105 10 0 18 -7 18 -16 0
-23 102 -66 148 -62 28 2 37 -1 37 -12 0 -8 -4 -66 -8 -128 -7 -96 -11 -111
-23 -101 -8 6 -14 21 -14 33 -1 69 -71 146 -166 182 -68 26 -76 10 -33 -73 29
-57 43 -73 99 -109 36 -23 80 -54 98 -69 32 -27 32 -28 32 -113 l0 -86 -52 56
c-44 46 -119 98 -143 98 -13 0 -3 -58 15 -88 18 -30 60 -55 153 -91 l27 -11 0
-157 0 -157 -58 57 c-63 62 -83 69 -106 35 -45 -64 9 -139 118 -163 l51 -11 6
-185 c4 -101 7 -185 8 -186 0 -2 8 -3 17 -3 15 0 16 17 12 176 l-6 176 25 -6
c38 -10 99 12 127 45 38 45 34 109 -8 109 -23 0 -88 -30 -123 -56 l-23 -16 0
89 0 89 43 11 c24 7 58 25 75 41 29 28 51 76 39 89 -10 9 -106 -18 -131 -38
-13 -10 -27 -19 -30 -19 -3 0 -6 67 -6 149 l0 149 28 10 c15 6 52 18 83 26 64
18 103 45 124 86 16 32 19 78 6 98 -15 24 -77 -11 -113 -64 -42 -60 -98 -124
-109 -124 -10 0 -12 120 -3 198 7 52 7 52 43 53 60 2 86 13 82 35 -3 18 -2 18
17 1 19 -17 21 -17 62 15 54 42 83 92 76 135 -4 27 -1 32 17 35 19 3 22 10 25
58 2 47 -1 62 -23 94 -19 28 -23 41 -15 51 8 10 -4 30 -54 86 -35 40 -62 78
-59 85 2 6 -12 25 -33 40 -32 25 -48 29 -113 32 -42 2 -79 0 -83 -4z m114 -24
c20 -6 47 -19 60 -29 l23 -19 -27 -29 c-14 -15 -39 -50 -55 -78 -18 -31 -37
-51 -50 -53 -18 -3 -22 5 -32 61 -12 71 -14 140 -4 150 9 10 42 8 85 -3z
m-155 -120 c36 -73 40 -87 28 -99 -13 -13 -24 -9 -84 33 -38 26 -72 53 -74 60
-7 17 61 98 77 94 6 -2 30 -42 53 -88z m303 -25 c24 -24 42 -46 39 -48 -2 -1
-36 -18 -76 -36 l-71 -34 -25 20 c-27 21 -28 17 20 101 32 56 56 55 113 -3z
m-385 -86 c116 -43 112 -70 -13 -88 -48 -6 -97 -15 -109 -18 -21 -5 -23 -2
-23 34 0 22 5 55 11 72 11 31 14 32 47 26 19 -4 58 -15 87 -26z m210 -18 c31
-18 42 -52 31 -95 -6 -26 -48 -48 -73 -39 -53 18 -73 108 -31 137 27 20 35 19
73 -3z m223 -14 c22 -24 42 -75 42 -110 0 -31 -29 -30 -98 2 -93 44 -93 45
-94 56 -1 9 107 74 123 75 3 0 15 -11 27 -23z m-346 -92 c-25 -45 -130 -164
-142 -162 -13 2 -80 100 -80 118 0 18 189 72 217 62 7 -3 10 -11 5 -18z m300
-57 c31 -21 48 -65 38 -93 -5 -11 -22 -33 -40 -50 l-31 -30 -39 45 c-22 25
-40 49 -40 53 0 4 -8 25 -19 47 -18 38 -18 39 2 58 19 20 22 20 61 5 23 -9 53
-25 68 -35z m-256 -88 c-4 -52 -11 -99 -15 -103 -13 -13 -74 10 -99 36 -34 36
-30 54 28 126 52 66 56 68 74 53 17 -15 18 -27 12 -112z m94 48 c25 -59 50
-145 43 -152 -8 -8 -62 -7 -90 0 -17 5 -22 12 -18 28 2 11 10 54 16 94 7 39
16 72 21 72 5 0 17 -19 28 -42z m-203 -291 c23 -20 49 -74 40 -83 -11 -12 -89
51 -113 91 -13 23 -24 45 -24 49 0 9 67 -30 97 -57z m359 -2 c14 -55 -51 -125
-116 -125 -19 0 -19 2 7 43 30 47 83 107 95 107 4 0 10 -11 14 -25z m-369
-254 c17 -11 45 -41 63 -66 35 -51 35 -51 -35 -25 -28 11 -61 50 -69 83 -8 32
-1 33 41 8z m283 -195 c0 -35 -97 -112 -116 -93 -11 11 30 65 65 86 43 25 51
26 51 7z m-220 -243 c53 -61 53 -72 -5 -53 -43 14 -85 62 -78 90 9 32 28 24
83 -37z m244 -39 c-7 -28 -55 -54 -100 -54 -37 0 -37 0 -18 21 24 27 107 70
116 60 4 -3 5 -16 2 -27z"/>
<path d="M338 1818 c-13 -24 -15 -121 -3 -157 6 -19 3 -20 -24 -15 -39 8 -61
-9 -61 -48 0 -33 47 -88 74 -88 9 0 21 -12 26 -26 13 -33 14 -32 -14 -27 -28
6 -76 -34 -76 -62 0 -24 53 -73 86 -80 47 -10 55 -18 81 -80 21 -53 70 -237
88 -335 l7 -35 -35 51 c-69 100 -144 139 -202 106 -46 -27 -76 -90 -78 -164
-3 -84 16 -87 72 -14 62 83 99 86 175 12 82 -81 93 -105 112 -261 9 -81 17
-226 18 -343 1 -174 3 -202 16 -200 35 7 22 440 -21 702 l-19 118 22 41 c38
69 59 75 171 49 103 -24 162 -28 172 -12 3 5 -13 30 -36 55 -55 59 -165 115
-228 115 -71 0 -96 -25 -116 -115 -6 -26 -11 -14 -35 80 -16 61 -38 132 -48
160 l-20 49 33 41 c45 55 65 98 68 143 2 34 0 37 -26 40 -34 4 -84 -43 -93
-87 -9 -43 -21 -38 -29 12 -3 23 -8 49 -11 58 -3 11 7 19 34 27 51 16 84 52
80 88 -3 25 -8 29 -37 32 -26 3 -40 -3 -62 -24 l-29 -28 0 37 c0 20 6 40 13
44 25 15 47 58 47 90 0 61 -66 97 -92 51z m61 -33 c4 -23 -28 -87 -40 -79 -22
13 1 109 24 101 6 -2 14 -12 16 -22z m66 -165 c9 -15 -22 -59 -48 -69 -29 -11
-31 -8 -17 21 26 50 52 69 65 48z m-135 -19 c27 -52 -1 -80 -40 -41 -16 16
-18 25 -10 40 14 25 36 26 50 1z m164 -173 c-24 -46 -54 -84 -54 -67 0 51 60
153 68 116 2 -9 -4 -31 -14 -49z m-123 -51 c11 -21 18 -42 14 -45 -3 -4 -23 2
-43 13 -40 21 -53 55 -31 81 15 19 33 4 60 -49z m395 -317 c61 -31 120 -77
111 -86 -3 -3 -55 5 -117 18 l-111 23 -40 -22 -39 -21 6 26 c10 39 32 79 46
85 34 14 89 5 144 -23z m-388 -54 c28 -14 76 -75 107 -135 l17 -35 -43 37
c-75 65 -138 68 -189 10 -28 -31 -30 -32 -30 -11 1 36 35 102 65 126 33 26 38
26 73 8z"/>
<path d="M3858 1622 c-75 -80 -84 -108 -62 -184 18 -60 15 -165 -6 -213 -13
-30 -14 -29 -21 36 -8 76 -34 141 -72 182 -44 46 -57 37 -57 -41 0 -97 23
-166 74 -219 l42 -45 -22 -64 c-12 -36 -24 -67 -27 -70 -3 -3 -10 10 -17 30
-10 33 -70 96 -90 96 -21 0 -40 -34 -40 -72 0 -56 51 -108 105 -108 36 0 37
-1 32 -32 -3 -18 -9 -63 -13 -100 l-6 -67 -25 37 c-72 105 -97 123 -118 83
-43 -83 8 -185 110 -222 l34 -13 0 -108 c0 -59 -2 -108 -4 -108 -2 0 -13 16
-25 34 -25 42 -77 76 -114 76 -30 0 -32 -7 -10 -58 20 -48 66 -95 115 -117
l39 -18 0 -119 c0 -98 3 -118 15 -118 13 0 15 31 15 219 l0 220 37 30 c37 31
111 54 126 41 5 -4 2 -22 -7 -38 -11 -22 -27 -34 -54 -41 -20 -5 -46 -12 -57
-15 -11 -3 6 -4 38 -1 67 4 104 24 113 60 12 48 -1 58 -59 51 -28 -4 -71 -16
-94 -26 l-43 -19 0 75 0 74 33 0 c72 1 161 66 173 128 6 31 5 32 -25 32 -42 0
-77 -19 -126 -69 -21 -23 -42 -41 -45 -41 -14 0 23 222 48 290 9 24 12 24 85
21 58 -2 85 2 119 17 41 18 98 72 98 93 0 22 -158 13 -217 -12 -25 -10 -46
-19 -47 -19 -10 0 52 153 75 187 55 79 72 131 73 220 1 63 -3 86 -15 98 -14
15 -21 10 -81 -53z m69 -44 c-6 -65 -24 -119 -60 -177 l-21 -34 -12 34 c-16
44 -17 104 -2 132 18 35 79 107 91 107 6 0 8 -23 4 -62z m-224 -203 c16 -35
42 -164 34 -172 -9 -9 -48 68 -53 102 -2 19 -6 51 -8 70 -6 45 6 45 27 0z
m312 -185 c8 -12 -34 -59 -68 -76 -32 -17 -130 -15 -148 3 -13 13 88 76 134
83 44 6 74 3 82 -10z m-360 -137 c14 -32 30 -65 34 -73 15 -27 -58 -18 -81 9
-20 26 -24 72 -8 102 17 30 27 23 55 -38z m225 -197 c0 -32 -21 -67 -52 -86
-31 -19 -88 -27 -100 -14 -4 3 20 30 53 60 57 52 99 69 99 40z m-283 -34 c53
-72 79 -152 49 -152 -48 0 -105 97 -90 155 8 32 15 32 41 -3z m6 -342 c38 -33
74 -110 53 -110 -30 0 -96 70 -110 118 -10 32 16 29 57 -8z"/>
<path d="M1880 1614 c-17 -15 -37 -39 -46 -55 -8 -16 -22 -29 -32 -29 -55 -1
-169 -85 -193 -142 -12 -29 -11 -32 15 -54 31 -27 71 -30 129 -10 36 13 37 13
32 -5 -12 -37 -6 -127 10 -159 28 -54 83 -59 123 -11 11 14 13 9 8 -29 -2 -25
-10 -126 -17 -224 -12 -168 -14 -177 -28 -155 -38 59 -117 129 -183 164 l-71
38 8 -39 c11 -60 62 -186 96 -238 31 -46 93 -97 137 -110 l22 -7 0 -240 c0
-206 2 -239 15 -239 13 0 15 32 16 223 1 122 2 240 3 262 l1 40 75 6 c82 6
127 24 178 73 39 36 56 67 65 114 8 42 -5 47 -84 33 -76 -13 -141 -44 -192
-90 l-40 -36 7 90 c19 258 38 481 40 490 2 6 9 -10 16 -34 14 -54 68 -111 102
-111 45 0 63 34 63 114 l0 72 38 -10 c40 -11 62 -4 80 26 29 45 -42 131 -149
185 -41 20 -74 42 -74 49 0 7 -14 26 -31 43 -40 41 -94 43 -139 5z m116 -27
c16 -19 24 -39 22 -56 -3 -22 -10 -27 -50 -35 -85 -17 -126 19 -92 81 31 59
76 63 120 10z m132 -81 c56 -28 122 -97 122 -127 0 -36 -19 -59 -48 -59 -38 0
-56 17 -76 69 -9 24 -30 63 -46 87 -17 23 -30 45 -30 48 0 13 33 5 78 -18z
m-288 -11 c21 -26 -24 -112 -72 -136 -47 -24 -116 -26 -125 -2 -14 36 59 112
133 138 50 18 49 18 64 0z m254 -85 c53 -106 57 -205 10 -236 -28 -19 -64 2
-89 51 -15 32 -19 61 -20 145 0 95 2 106 20 117 27 15 38 5 79 -77z m-148 60
c33 0 1 -206 -44 -282 -23 -40 -51 -46 -75 -17 -27 33 -19 126 17 205 38 84
55 107 73 100 8 -3 21 -6 29 -6z m-212 -597 c16 -8 51 -37 77 -63 51 -51 84
-131 77 -187 -3 -26 -8 -21 -65 57 -94 127 -96 130 -74 85 10 -22 46 -75 80
-119 34 -43 61 -80 61 -81 0 -1 -19 7 -42 18 -87 41 -130 103 -168 238 -11 41
-20 75 -20 77 0 5 42 -9 74 -25z m471 -100 c-16 -69 -102 -135 -191 -149 -89
-13 -83 5 16 50 51 23 96 48 98 54 6 20 -15 14 -98 -28 -44 -22 -80 -36 -80
-31 0 15 81 82 119 98 43 19 87 31 120 32 20 1 22 -2 16 -26z"/>
<path d="M2446 1349 c-17 -25 -12 -43 19 -63 20 -13 68 -111 90 -184 7 -23 6
-23 -24 -8 -16 9 -36 16 -44 16 -7 0 -23 11 -35 25 -25 29 -44 31 -66 9 -19
-18 -19 -20 -6 -45 13 -22 47 -25 69 -5 14 12 21 12 56 -5 22 -11 48 -28 58
-37 14 -15 67 -192 67 -229 0 -6 -40 16 -89 48 -67 46 -88 64 -84 78 5 22 -23
53 -45 49 -8 -2 -21 -13 -29 -25 -13 -19 -12 -24 6 -42 11 -11 27 -17 38 -15
11 3 25 -1 31 -9 10 -12 7 -17 -18 -27 -16 -7 -35 -18 -41 -26 -6 -8 -19 -14
-29 -14 -43 0 -50 -62 -8 -76 23 -7 48 13 52 42 1 11 22 29 47 43 l44 24 63
-44 c34 -23 62 -50 62 -59 0 -9 4 -20 9 -26 8 -8 31 -151 31 -191 0 -8 -13 -3
-38 15 -22 15 -57 36 -80 46 -23 10 -39 23 -36 27 3 5 -1 19 -7 31 -7 13 -12
37 -11 55 2 23 -3 35 -17 42 -25 14 -27 14 -45 -5 -23 -22 -20 -37 14 -72 17
-18 30 -37 30 -42 0 -17 -61 -69 -75 -64 -7 3 -20 -5 -28 -17 -18 -24 -8 -55
19 -66 20 -8 55 26 52 50 -2 12 8 28 24 40 26 19 27 19 73 1 26 -11 67 -38 92
-60 l45 -42 -4 -201 c-2 -111 0 -201 5 -201 4 0 10 -1 15 -2 4 -2 12 60 18
137 12 161 30 213 93 275 56 55 100 80 144 80 30 0 39 5 46 23 19 50 -47 83
-70 34 -6 -13 -23 -28 -38 -34 l-28 -10 -7 106 c-7 106 -13 121 -49 121 -25 0
-44 -45 -27 -65 7 -8 19 -15 26 -15 34 0 29 -146 -7 -190 -11 -14 -34 -47 -52
-74 l-32 -49 -12 121 c-6 67 -21 174 -33 238 -12 67 -17 120 -12 123 5 3 16
20 25 36 24 43 65 87 77 80 18 -11 50 15 50 40 0 48 -64 56 -76 9 -3 -13 -10
-24 -14 -24 -4 0 -23 -22 -41 -50 -19 -27 -36 -50 -39 -50 -3 0 -20 48 -38
106 l-33 105 36 49 c22 29 45 50 55 50 23 0 42 32 34 54 -10 26 -55 32 -71 11
-7 -11 -13 -26 -13 -36 0 -9 -13 -33 -29 -53 l-30 -37 -20 47 c-12 26 -18 56
-15 69 6 24 -17 55 -41 55 -8 0 -21 -10 -29 -21z"/>
</g>
</svg>
