<?xml version="1.0" standalone="no"?>
<!DOCTYPE svg PUBLIC "-//W3C//DTD SVG 20010904//EN"
 "http://www.w3.org/TR/2001/REC-SVG-20010904/DTD/svg10.dtd">
<svg version="1.0" xmlns="http://www.w3.org/2000/svg"
 width="376.000000pt" height="292.000000pt" viewBox="0 0 376.000000 292.000000"
 preserveAspectRatio="xMidYMid meet">

<g transform="translate(0.000000,292.000000) scale(0.100000,-0.100000)"
fill="#000000" stroke="none">
<path d="M3129 2724 c-10 -13 -10 -17 2 -25 30 -19 54 -5 43 25 -8 20 -28 20
-45 0z"/>
<path d="M3211 2666 c-16 -19 -11 -46 12 -60 25 -16 52 4 52 40 0 24 -5 30
-26 32 -14 2 -31 -4 -38 -12z"/>
<path d="M3117 2664 c-4 -4 -7 -18 -7 -31 0 -21 4 -24 28 -21 21 2 27 8 27 28
0 18 -6 26 -20 28 -12 2 -24 0 -28 -4z"/>
<path d="M3555 2606 c-114 -36 -253 -143 -323 -248 -13 -21 -25 -38 -26 -38
-1 0 -1 55 -1 123 0 102 -2 122 -15 122 -11 0 -16 -13 -18 -50 -5 -100 -34
-312 -53 -385 -35 -132 -117 -314 -196 -432 -45 -67 -152 -189 -241 -272 l-62
-60 -28 22 c-79 64 -104 76 -165 80 -54 4 -67 9 -97 37 -79 75 -202 95 -334
54 -82 -25 -148 -83 -165 -144 -24 -89 -4 -99 42 -19 43 74 74 101 140 124
119 39 214 22 283 -52 32 -34 115 -160 110 -166 -2 -1 -25 9 -52 23 -43 23
-58 26 -117 22 -88 -6 -115 -27 -36 -27 85 0 143 -25 205 -86 102 -103 117
-171 59 -264 -19 -30 -35 -58 -35 -62 0 -20 41 -5 66 25 75 89 68 182 -22 293
-22 28 -31 48 -28 62 3 11 -4 41 -15 68 -12 26 -20 49 -18 51 2 2 28 -8 58
-21 67 -30 150 -114 181 -181 50 -112 20 -277 -69 -375 -51 -57 -65 -62 -63
-22 6 91 -18 82 -65 -23 -49 -111 -103 -162 -205 -195 -56 -18 -85 -22 -143
-18 -111 8 -181 39 -254 115 -35 34 -65 63 -68 63 -13 0 -3 -68 14 -96 46 -75
150 -123 288 -131 81 -5 102 -2 177 21 69 21 95 35 140 77 30 27 65 66 77 85
11 19 37 43 58 53 65 34 123 110 157 206 19 53 25 206 10 256 l-8 26 99 7
c143 10 282 31 295 44 21 21 -1 26 -60 14 -31 -6 -125 -14 -207 -18 l-151 -7
-17 26 -17 26 63 44 c91 65 233 229 296 340 18 31 35 57 37 57 3 0 17 -8 31
-17 38 -25 168 -25 206 0 41 27 45 46 14 73 l-27 23 33 23 c66 46 85 83 65
126 -27 56 -103 36 -214 -54 -32 -26 -54 -39 -51 -30 21 54 57 168 66 211 16
69 24 80 48 66 28 -14 75 1 143 46 30 20 75 50 100 66 98 65 210 199 210 251
0 19 -35 56 -52 55 -7 0 -31 -6 -53 -13z m81 -30 c23 -59 -221 -302 -345 -344
-44 -16 -71 -15 -71 1 0 7 68 70 150 140 133 114 166 147 144 147 -4 0 -32
-24 -63 -52 -84 -78 -221 -181 -221 -167 0 42 183 209 284 259 64 32 113 39
122 16z m-306 -595 c0 -14 -6 -33 -13 -43 -17 -22 -99 -69 -172 -98 -71 -29
-49 -41 25 -14 37 13 57 15 77 8 37 -13 40 -37 8 -52 -34 -16 -167 -16 -183 0
-28 28 -13 61 56 125 110 103 202 137 202 74z"/>
<path d="M3040 2581 c-14 -27 -13 -28 14 -46 40 -26 78 5 56 46 -14 25 -56 25
-70 0z"/>
<path d="M3237 2564 c-12 -12 -8 -41 8 -54 20 -17 47 5 43 34 -3 21 -37 34
-51 20z"/>
<path d="M2656 2018 c-8 -13 -23 -41 -33 -63 -35 -78 -21 -515 17 -515 26 0
76 111 101 220 25 114 26 291 1 340 -22 44 -63 53 -86 18z m75 -52 c19 -69 5
-245 -29 -364 -16 -57 -37 -111 -45 -119 -14 -14 -16 -10 -22 42 -11 82 0 394
15 430 16 41 39 65 56 58 8 -3 19 -24 25 -47z"/>
<path d="M2918 1399 c-22 -12 -23 -52 -3 -69 19 -15 61 -6 69 16 7 19 -19 64
-37 64 -6 0 -20 -5 -29 -11z"/>
<path d="M3040 1392 c0 -24 8 -32 26 -25 22 8 17 43 -6 43 -13 0 -20 -7 -20
-18z"/>
<path d="M1700 1379 c-36 -14 -98 -77 -123 -124 -25 -49 -35 -174 -18 -242 16
-64 53 -117 101 -148 39 -24 52 -45 29 -45 -6 0 -25 -7 -42 -15 -89 -40 -462
-169 -547 -189 -33 -7 -104 28 -130 63 -34 49 -177 137 -260 160 -87 25 -244
39 -254 23 -29 -48 130 -181 268 -224 53 -17 98 -23 178 -24 60 0 111 -3 114
-7 8 -8 -54 -24 -166 -44 -71 -12 -163 -16 -359 -17 -202 -1 -265 -4 -268 -13
-3 -7 1 -13 7 -13 7 0 60 -7 119 -16 91 -14 126 -14 246 -4 175 15 338 35 433
53 84 17 91 9 38 -42 -20 -19 -61 -43 -101 -56 -72 -26 -110 -51 -199 -135
-66 -62 -116 -133 -116 -165 0 -24 29 -55 51 -55 35 0 150 55 210 100 79 59
134 136 149 207 7 32 26 71 51 104 21 29 39 56 39 60 0 5 19 13 43 19 23 7
104 32 181 56 76 25 141 43 143 40 3 -3 -18 -26 -47 -53 -129 -118 -232 -327
-205 -412 11 -34 49 -26 83 17 56 72 171 294 182 351 6 31 13 68 16 83 5 22
23 37 108 82 88 47 108 54 139 49 20 -3 37 -3 37 0 0 3 -32 23 -71 43 -143 75
-196 196 -155 352 26 95 78 155 148 169 15 3 25 9 22 14 -7 12 -42 10 -74 -2z
m-1079 -545 c73 -14 144 -33 158 -42 80 -49 161 -106 161 -113 0 -13 -3 -12
-67 17 -76 34 -218 84 -240 84 -42 0 20 -30 165 -80 104 -36 150 -56 143 -63
-15 -15 -158 8 -230 37 -109 44 -251 151 -235 177 7 11 -10 13 145 -17z m833
-286 c-14 -29 -41 -78 -60 -109 -36 -60 -39 -69 -25 -69 9 0 77 116 114 192
20 44 42 53 26 11 -26 -68 -122 -253 -154 -295 -36 -50 -75 -65 -75 -30 0 37
43 143 82 204 41 64 106 148 114 148 2 0 -7 -24 -22 -52z m-466 -151 c-24 -30
-74 -78 -111 -107 -38 -30 -64 -56 -58 -58 21 -7 80 39 148 115 37 41 69 70
71 65 4 -13 -33 -87 -65 -129 -51 -66 -198 -153 -259 -153 -89 0 -22 104 151
233 133 100 188 115 123 34z"/>
<path d="M3150 1366 c-6 -8 -10 -25 -8 -38 2 -18 9 -23 33 -23 24 0 31 5 33
23 4 25 -13 52 -33 52 -7 0 -18 -7 -25 -14z"/>
<path d="M1946 1329 c-38 -9 -97 -47 -124 -79 -32 -39 -44 -85 -39 -156 5 -89
32 -138 91 -165 41 -18 136 -26 136 -11 0 19 -27 32 -70 32 -83 0 -124 52
-124 160 0 113 60 174 186 188 48 5 64 11 66 25 3 14 -4 17 -40 16 -24 -1 -61
-5 -82 -10z"/>
<path d="M3140 1255 c0 -28 21 -33 40 -10 15 18 5 35 -21 35 -14 0 -19 -7 -19
-25z"/>
<path d="M2096 1248 c-25 -7 -58 -29 -88 -59 -46 -46 -48 -51 -48 -102 0 -63
20 -95 74 -121 78 -37 217 -2 251 64 17 34 13 82 -9 110 -7 8 -18 29 -25 47
-7 17 -20 38 -29 46 -24 21 -80 28 -126 15z m-56 -97 c-16 -32 -12 -89 9 -110
45 -45 152 -30 165 23 10 40 -13 79 -54 93 -19 7 -27 12 -17 12 58 2 126 -64
112 -108 -23 -72 -178 -90 -232 -26 -29 33 -29 68 -1 105 25 34 34 39 18 11z
m70 -6 c-19 -23 -4 -45 30 -45 25 0 31 -4 28 -17 -4 -22 -53 -30 -74 -12 -17
14 -19 60 -2 77 17 17 33 15 18 -3z"/>
<path d="M2872 1238 c-20 -20 -14 -66 9 -79 45 -24 101 38 69 76 -15 18 -61
20 -78 3z"/>
<path d="M3007 1234 c-25 -25 8 -70 43 -59 32 10 24 59 -10 63 -14 2 -29 0
-33 -4z"/>
<path d="M2360 892 c0 -113 -89 -197 -201 -189 -99 8 -186 72 -198 144 -7 45
-22 49 -32 11 -10 -37 30 -116 74 -145 135 -92 308 -57 380 76 40 72 34 151
-10 151 -9 0 -13 -15 -13 -48z"/>
<path d="M1670 715 c-19 -23 -8 -50 20 -50 16 0 26 6 28 18 4 18 -14 47 -28
47 -4 0 -13 -7 -20 -15z"/>
<path d="M222 668 c-28 -28 -1 -75 37 -63 26 8 39 54 20 66 -20 12 -43 11 -57
-3z"/>
<path d="M1602 618 c-7 -7 -12 -18 -12 -25 0 -15 30 -32 48 -26 17 7 15 50 -4
57 -20 8 -18 8 -32 -6z"/>
<path d="M91 591 c-26 -47 -4 -85 46 -79 33 4 54 48 37 76 -16 26 -70 28 -83
3z"/>
<path d="M1700 580 c0 -27 3 -31 23 -28 16 2 22 10 22 28 0 18 -6 26 -22 28
-20 3 -23 -1 -23 -28z"/>
<path d="M232 468 c-7 -7 -12 -21 -12 -33 0 -48 63 -64 80 -19 19 48 -33 87
-68 52z"/>
</g>
</svg>
